<svg xmlns="http://www.w3.org/2000/svg" width="500" zoomAndPan="magnify" viewBox="0 0 375 374.999991" height="500"
     preserveAspectRatio="xMidYMid meet" version="1.0">
    <defs>
        <clipPath id="40824d657e">
            <path d="M 7 7 L 368 7 L 368 368 L 7 368 Z M 7 7 "/>
        </clipPath>
        <clipPath id="f460481d63">
            <path d="M 120.769531 -58.019531 L 433.179688 120.859375 L 254.300781 433.273438 L
     -58.113281 254.394531 Z M 120.769531 -58.019531 "/>
        </clipPath>
        <clipPath id="fbca1a4e71">
            <path d="M 121 121 L 253.75 121 L 253.75 253.75 L 121 253.75 Z M 121 121 "/>
        </clipPath>
        <clipPath id="d7957c987a">
            <path d="M 141.675781 141.675781 L 233.175781 141.675781 L 233.175781 233.175781
    L 141.675781 233.175781 Z M 141.675781 141.675781 "/>
        </clipPath>
    </defs>
    <path fill="#a952ff"
          d="M 187.5 0 C 83.945312 0 0 83.945312 0 187.5 C 0 291.054688 83.945312 375 187.5 375 C 291.054688
          375 375 291.054688 375 187.5 C 375 83.945312 291.054688 0 187.5 0 "
          fill-opacity="1"/>
    <g clip-path="url(#40824d657e)">
        <g clip-path="url(#f460481d63)">
            <path fill="#b352ff"
                  d="M 276.972656 31.421875 C 190.703125 -17.976562 80.722656 11.917969 31.328125 98.1875
                  C -18.070312 184.457031 11.824219 294.4375 98.09375 343.832031 C 184.363281 393.230469
                  294.34375 363.335938 343.738281 277.066406 C 393.136719 190.796875 363.246094 80.816406
                  276.972656 31.421875 "
                  fill-opacity="1"/>
        </g>
    </g>
    <path transform="matrix(0.649002, 0.374856, -0.375116, 0.649452, 31.374011, 98.106241)"
          fill="none" d="M 0.000627115 -0.00155067 L 203.145038 0.00209982 " stroke="#2b2a2a"
          stroke-width="30" stroke-opacity="1" stroke-miterlimit="4"/>
    <path transform="matrix(0.649238, 0.375001, -0.375122, 0.649449, 218.240059, 204.472004)"
          fill="none" d="M -0.00161817 0.0019384 L 193.065524 -0.000930098 " stroke="#2b2a2a"
          stroke-width="25" stroke-opacity="1" stroke-miterlimit="4"/>
    <g clip-path="url(#fbca1a4e71)">
        <path fill="#2b2a2a"
              d="M 187.375 121 C 150.71875 121 121 150.71875 121 187.375 C 121 224.035156 150.71875
              253.75 187.375 253.75 C 224.035156 253.75 253.75 224.035156 253.75 187.375 C 253.75 150.71875
              224.035156 121 187.375 121 "
              fill-opacity="1"/>
    </g>
    <g clip-path="url(#d7957c987a)">
        <path fill="#e252ff"
              d="M 187.425781 141.675781 C 162.160156 141.675781 141.675781 162.160156 141.675781
              187.425781 C 141.675781 212.691406 162.160156 233.175781 187.425781 233.175781 C 212.691406
              233.175781 233.175781 212.691406 233.175781 187.425781 C 233.175781 162.160156 212.691406
              141.675781 187.425781 141.675781 "
              fill-opacity="1"/>
    </g>
</svg>